/* XPM */
static char *_27f63d78fe74a7896184e2f9405c39aOJonLjGP1JzV7ta4[] = {
/* columns rows colors chars-per-pixel */
"77 64 227 2 ",
"   c #000000",
".  c #090605",
"X  c #0C0807",
"o  c #090708",
"O  c #0D0A0B",
"+  c #120D0D",
"@  c #1B0C09",
"#  c #18110E",
"$  c #120F11",
"%  c #151315",
"&  c #191414",
"*  c #1D1817",
"=  c #191719",
"-  c #1C1A1C",
";  c #241815",
":  c #221C1D",
">  c #291E1C",
",  c #2C221E",
"<  c #32231D",
"1  c #1F1E20",
"2  c #211E21",
"3  c #252325",
"4  c #2A2325",
"5  c #272628",
"6  c #292629",
"7  c #2D2B2D",
"8  c #312525",
"9  c #322A26",
"0  c #3A2A24",
"q  c #37272A",
"w  c #332C2C",
"e  c #3A2E2B",
"r  c #3A3327",
"t  c #35322B",
"y  c #3B332D",
"u  c #2F2E30",
"i  c #312E31",
"p  c #3C2F32",
"a  c #333133",
"s  c #3B3532",
"d  c #3C3738",
"f  c #393939",
"g  c #472F2D",
"h  c #42342D",
"j  c #4B332D",
"k  c #4B392D",
"l  c #52382F",
"z  c #433533",
"x  c #4A3633",
"c  c #443A34",
"v  c #4C3C34",
"b  c #433C38",
"n  c #4B3D3A",
"m  c #533D33",
"M  c #5B3A35",
"N  c #503E3C",
"B  c #643C39",
"V  c #484139",
"C  c #4B433C",
"Z  c #534236",
"A  c #53443C",
"S  c #5B453C",
"D  c #55483C",
"F  c #5A4A3E",
"G  c #63443A",
"H  c #69493C",
"J  c #4B4543",
"K  c #484644",
"L  c #494748",
"P  c #4A494A",
"I  c #544B45",
"U  c #584A46",
"Y  c #5C4C44",
"T  c #5D5244",
"R  c #5C5249",
"E  c #624B45",
"W  c #684843",
"Q  c #784A4A",
"!  c #645044",
"~  c #65544C",
"^  c #6B554B",
"/  c #6B554C",
"(  c #6C5A4E",
")  c #75534D",
"_  c #725C4F",
"`  c #695553",
"'  c #6D5A51",
"]  c #635A58",
"[  c #735D55",
"{  c #7A5D54",
"}  c #715C5A",
"|  c #756153",
" . c #796253",
".. c #76625B",
"X. c #7C645C",
"o. c #7B695C",
"O. c #7E6763",
"+. c #825F55",
"@. c #83645B",
"#. c #856659",
"$. c #8C6A5C",
"%. c #836B63",
"&. c #8A6D63",
"*. c #816C6E",
"=. c #9A6E65",
"-. c #857263",
";. c #86756D",
":. c #8D756A",
">. c #8C736C",
",. c #937365",
"<. c #9B7263",
"1. c #94746B",
"2. c #9B756B",
"3. c #927C6D",
"4. c #9D7B6C",
"5. c #8B7775",
"6. c #967C72",
"7. c #9C7C73",
"8. c #997874",
"9. c #977F7D",
"0. c #A17C6B",
"q. c #A27C72",
"w. c #AB7E79",
"e. c #B27C7E",
"r. c #99816F",
"t. c #978174",
"y. c #9B8174",
"u. c #9C857B",
"i. c #9F8B79",
"p. c #A78174",
"a. c #A5847C",
"s. c #AC857B",
"d. c #A48D7C",
"f. c #AD8A7B",
"g. c #B1847C",
"h. c #B48B7C",
"j. c #B9897C",
"k. c #A8927E",
"l. c #938583",
"z. c #9F908E",
"x. c #AA8C82",
"c. c #AA8A88",
"v. c #B38D83",
"b. c #B68A84",
"n. c #AC9383",
"m. c #A4918D",
"M. c #AC978C",
"N. c #B39384",
"B. c #BC9284",
"V. c #B49985",
"C. c #B99885",
"Z. c #B3948B",
"A. c #BB938A",
"S. c #B49B8C",
"D. c #B99C8B",
"F. c #B79895",
"G. c #BD9D92",
"H. c #BBA18D",
"J. c #BDA292",
"K. c #BBA29C",
"L. c #C69789",
"P. c #C49B8C",
"I. c #CA9C8D",
"U. c #C79796",
"Y. c #C49C93",
"T. c #CB9D93",
"R. c #D09F99",
"E. c #C1A48D",
"W. c #C8A48E",
"Q. c #C4A694",
"!. c #CCA493",
"~. c #C5AA95",
"^. c #CCA894",
"/. c #C3A59A",
"(. c #CCA49B",
"). c #C5AA9C",
"_. c #CCAB9D",
"`. c #D1A596",
"'. c #D4A49C",
"]. c #D3AA9C",
"[. c #DAAB9D",
"{. c #C9B09F",
"}. c #C0A5A3",
"|. c #CCAEA2",
" X c #D3AEA2",
".X c #DCADA2",
"XX c #D8ABA8",
"oX c #CDB2A2",
"OX c #CDB4AA",
"+X c #D4B4A5",
"@X c #DCB3A4",
"#X c #D6B4A9",
"$X c #DCB5AA",
"%X c #D8BAA8",
"&X c #DCBBAB",
"*X c #D6BCB5",
"=X c #E1AFA3",
"-X c #E3B2A5",
";X c #E4B5AC",
":X c #E8B7AC",
">X c #E3B9AB",
",X c #EABAAC",
"<X c #E5BBB2",
"1X c #E7BBB5",
"2X c #EBBDB2",
"3X c #EDBDB9",
"4X c #DDC0AF",
"5X c #DDC2BB",
"6X c #EDC1AF",
"7X c #E4C3B4",
"8X c #ECC1B5",
"9X c #E5C4BC",
"0X c #ECC3B9",
"qX c #EDCABD",
"wX c #F2C3B4",
"eX c #F2C4BB",
"rX c #F5C9BC",
"tX c #E6C8C1",
"yX c #F5CCC2",
"uX c #F7C9C4",
"iX c #EDD0C7",
"pX c #F4D2C6",
"aX c #F8D1C7",
"sX c #F4D3CB",
"dX c #F9D4CA",
"fX c #FBD8CF",
"gX c #F8D8D0",
/* pixels */
"                                                                                                                                                          ",
"                                                                                                                                                          ",
"                                                                                                                                                          ",
"                                                                                                                                                          ",
"                                                                                                                                                          ",
"                                                                                                                                                          ",
"                                                                                                                                                          ",
"                                                                                                                                                          ",
"                                                                                                                                                          ",
"                                                                                                                                                          ",
"                                                                                                                                                          ",
"                                                                                      . % 4 w 7 7 - .                                                     ",
"                                                                                  . - t K J J V c V a 5 : .                                               ",
"                                                                                O w C C V V V V V V C I P s +                                             ",
"                                                                              % d I T ~ ( ' ' R I I T I U I c $                                           ",
"                                                                            + c T ..t.V.J.Q.G.t.:.3.:.o.' R R z O                                         ",
"                                                                          X y Y -.V.^.].[.@X@X]._.oX+X|.V.-.( R t                                         ",
"                                                                          , D -.Q._.`.`.'.[.=X=X@X>X>X2X7X+Xt.( T *                                       ",
"                                                                        + c | V._.`.`.[.[.=X=X=X-X;X:X6XqXqXoX-.T t                                       ",
"                                                                        > F r.^.^.`.].'.[.-X-X;X:X:X,XwXrXrX7XV.( V O                                     ",
"                                                                      X k | V.^.!.Q.(. X$X:X:X2X2XwXeXeXrXrX8X{.o.D ,                                     ",
"                                                                      # F r.Q.E.f.,.,.p.Y.$X0XeXeX8X0XqXuXrX8X@Xr.F t o                                   ",
"                                                                      ;  .H.E.p.4.y.&.#.q.!.0XyX0XY.q.f.(.<X8X&Xi.F y X                                   ",
"                                                                    . 0 r.~.k.f.Q.oX|.G.v.Y.<XqX<XY.s.,.2.v.;X&Xk.F t O                                   ",
"                                                                    . m V.W.C.C.C.Q.Q.Y.h.D.>XrX$X|.|.&X+XA.I.&Xn.D 9 O                                   ",
"                                                                  & h  .J.E.C.4.$.#.#.<.0.B.@X6X(.Y./.&X9X$XD.].S.D 9 o                                   ",
"                                                                . ~ $.4.W.W.h.p.<.#.+.<.=.j.[.,XY.q.s.N._. XE.^.~.T , o                                   ",
"                                                                ; &.4.g.!.!.W.W.C.B.B.j.j.L.[.-XI.=.#.H $.f.W.].oX( ;                                     ",
"                                                                h n.h.L.!.`.[.=X[.'.`.I.L.L.[.-X.XB.q.=.<.p.`.>X+X{ &                                     ",
"                                                                m n.h.L.!.`.[.=X=X=X.XT.L.`.-X,X;X;X X].].'.,X6X@X{ @                                     ",
"                                                                v q.h.I.T.'.[.-X;X=XL.L.I.=X3X2X2X1X:X<X6XwXwX6X[.#.x +                                   ",
"                                                                N 7.j.I.T.'..X:X:XT.e.e.=.L.'.'.;X:X2X3XrXrXwX,X].g.c.s                                   ",
"                                                                N 7.g.P.U.`.$X1X1X|.e.q.2.b.e.e.XX;X3XuXrXrXwX,X'.T.c.n                                   ",
"                                                                q @.2.B.U.`.XX<X1XXXc.&.1.a.b.R.XX3XuXuXyXwXwX:X.X.XF.z                                   ",
"                                                                X S $.s.U.}.XX#XG.1.W M W ) { Z.1X3XuXuXrX8X,X@XT.'.9.#                                   ",
"                                                                . j { q.B.Y.Y.a.) l j M S U W { U.XX3XuX0X,X:X[.j.U.E                                     ",
"                                                                  q [ ,.a.Z.x.W l g g M Q W M F @.G.1X0X0X2X$X!.w.w.:                                     ",
"                                                                  > E X.6.7.@.G B M B Q +.W B B W a.$X3X<X$X+Xg.8.E                                       ",
"                                                                X e Z ~ X.%.[ ! @.8.e.e.e.=.) W G 4.#X&X+X_.Z.&.{ :                                       ",
"                                                                . 0 c S ' [ _ { 8.F.U.U.U.R.b.@.W 2.)._.Y.S.3.' 4                                         ",
"                                                                . b v v Y ~ ! { 8.8.1.1.w.G.F.1._ ,.x.M.x.t.[ 0                                           ",
"                                                                * ] b h V A F _ %.@.) Q { 8.9.&. .X.3.u.:.[ A &                                           ",
"                                                                b ;.D h z k v T O.*.X._ { &.%.[ _ ^ o.%.[ D h X                                           ",
"                                                            o Z i.u.T h r y k D } >.>.&.>.>.%./ F E ( ^ Z v h X                                           ",
"                                                        . % h d.H.k.| V r r t V ` O.5.9.>.%.' Z c C F D k S r                                             ",
"                                                    o $ = , Z k.E.H.r.D r r t r v Y ..%.' ` A c z V b v S ;.n +                                           ",
"                                                  $ 2 2 : : g d.W.H.k.H r t t 9 q z n N N n s s d z k k -.M.N 4 : 2 o                                     ",
"                                            . O & 2 2 - : > 0 3.~.W.k. .Z r t 9 9 w q e z p y s c z m _ J.S.N 8 4 9 4 = o                                 ",
"                                          $ = = = - , = 1 2 > _ J.~.V.r. .D w y e w 9 p s 9 e z c v  .S.+Xn.y 4 4 2 u 7 2 2 $ o                           ",
"                                    o % - 1 % = = - - = 1 2 : x H.{.J.H.n.o.A n z p w p e 0 h x D $.J.%X%X6.9 4 4 : q 6 6 6 6 6 1 = O o                   ",
"                                o $ = - - 1 % = = - - = - 2 2 < :.oX).~.J.t.} ~ I x g x v n U / 6.Q.%X&XoX( 4 5 6 - 2 6 q 2 2 i u w i 6 - O               ",
"                            o = 1 3 - = = = % = = - - = - 1 : ; T K.oX).Q.n.3.o.[ ` Y Y ' } %.u./.%X&X4XM.y , 4 6 = 2 q 6 6 2 6 6 7 i a i i i : O         ",
"                      o % % 3 3 1 1 - = = = % = = - - = - - : : y u.oX{.).Q.J.S.M.c.>.%.%.1.u.D._.%X&X+X| 4 4 6 3 - 2 6 5 6 2 5 6 6 7 w 7 a d f i .       ",
"                      1 a 7 5 3 1 - = - = % % = - - - % - 1 2 : > ' K.oX{._.oX+X#X+X|./././._.+X%X%X&Xd.0 3 4 6 3 2 - 7 6 2 2 5 6 5 7 7 7 w a a i o       ",
"                    % i i 7 5 5 3 1 = = = % = - - 1 - = - 1 1 2 : c M.4X%X+X+X&X&X#X#X#X$X%X&X4X&X4XK.F 4 6 7 6 6 2 - 7 6 5 2 5 6 7 6 7 7 w u a u o       ",
"                  % a i i 7 7 6 5 5 1 - 1 = = - - - - = - 1 2 2 3 9 ;.5X7X&X&X<X9X<X<X&X&X7X7X4X7X4X%.w 4 6 7 6 6 2 - 7 6 6 5 5 6 7 7 7 7 i u a 7 o       ",
"                % a a a a 7 i 7 7 5 2 1 1 - - - 1 1 1 1 1 2 2 2 6 9 Y OXpXqX9XqXyXyX0X9X0XqXqXqXiXF.x 8 7 7 7 7 7 6 : 7 6 6 6 7 7 7 7 7 7 7 u u i o       ",
"              $ a a a a a 7 a 7 u 6 5 3 3 2 1 - 1 1 1 1 5 5 5 5 7 7 e m.iXsXiXdXdXdXpXyXyXpXsXsX*X} 8 6 7 i i 7 u 7 2 7 i 7 6 7 5 7 7 7 7 u u a 7 o       ",
"            X 7 f a a i a 7 7 u 7 6 6 5 5 5 5 3 2 2 1 2 5 5 5 u 7 7 9 } tXgXdXdXdXdXfXuXdXdXsXiXl.g q u a a a i u 7 3 7 i 6 7 7 7 7 7 u 7 u u a 7 o       ",
"          . 6 a a a a a a i 6 7 u u 6 5 6 7 5 5 6 5 5 5 5 7 7 u 7 a 7 x K.gXfXdXdXaXdXfXdXdXsXK.N 9 i a i u 7 u u u 6 u u 7 7 7 7 7 7 7 u u u u 5 o       ",
"          - a a a a a a a a 6 7 u u 6 6 6 u u 6 7 5 6 7 u u u u i i i q O.tXgXgXuXuXfXfXgXgX*X] 6 i i 7 i a u u 7 u 6 7 u 7 7 7 7 7 7 7 u u u i 7         ",
"        $ a a u u a u a u u u i u u u u u u u u 7 7 u u u u u u i i i w n }.sXsXgXgXuXfXsX5XO.p i i i i 7 a u u u u u 7 u 7 u 6 7 7 7 u 7 u u i 5 o       ",
"      . 5 a u u u u a a u 7 u u u u 6 u u u u u 5 u u 7 u u u i u i i w q *.tXiXgXuXuXsX5Xl.z p i u i i a a i a u 7 u u u u 7 7 u u u u 7 u u a 5 o       ",
"f f f f P P P K P P P P P P P P P L L P P P L L L L L L P P P L L L P L L ] l.z.z.z.z.z.5.] P L L P P L P P P P P P L P L L P L P K P P K P P P K a f f a "
};
